<svg width="128" height="128" viewBox="0 0 128 128" fill="none" xmlns="http://www.w3.org/2000/svg">
<rect width="128" height="128" fill="#03071E"/>
<g filter="url(#filter0_d_1_4)">
<path d="M22 77V73H18V69H14V57H18V53H22V49H38V53H42V57H34V53H26V57H22V69H26V73H34V69H42V73H38V77H22ZM46 77V49H54V53H58V57H62V61H66V49H74V77H66V69H62V65H58V61H54V77H46ZM82 77V73H78V69H86V73H98V65H82V61H78V53H82V49H102V53H106V57H98V53H86V61H102V65H106V73H102V77H82Z" fill="#FFBA08"/>
</g>
<defs>
<filter id="filter0_d_1_4" x="14" y="49" width="95" height="31" filterUnits="userSpaceOnUse" color-interpolation-filters="sRGB">
<feFlood flood-opacity="0" result="BackgroundImageFix"/>
<feColorMatrix in="SourceAlpha" type="matrix" values="0 0 0 0 0 0 0 0 0 0 0 0 0 0 0 0 0 0 127 0" result="hardAlpha"/>
<feOffset dx="3" dy="3"/>
<feComposite in2="hardAlpha" operator="out"/>
<feColorMatrix type="matrix" values="0 0 0 0 0.862745 0 0 0 0 0.184314 0 0 0 0 0.00784314 0 0 0 1 0"/>
<feBlend mode="normal" in2="BackgroundImageFix" result="effect1_dropShadow_1_4"/>
<feBlend mode="normal" in="SourceGraphic" in2="effect1_dropShadow_1_4" result="shape"/>
</filter>
</defs>
</svg>
